<?xml version="1.0" encoding="utf-8"?>
<!-- Svg Vector Icons : http://www.onlinewebfonts.com/icon -->
<!DOCTYPE svg PUBLIC "-//W3C//DTD SVG 1.1//EN" "http://www.w3.org/Graphics/SVG/1.1/DTD/svg11.dtd">
<svg version="1.1" xmlns="http://www.w3.org/2000/svg" xmlns:xlink="http://www.w3.org/1999/xlink" x="0px" y="0px" viewBox="0 0 1000 1000" enable-background="new 0 0 1000 1000" xml:space="preserve">
<metadata> Svg Vector Icons : http://www.onlinewebfonts.com/icon </metadata>
<g><g transform="translate(0.000000,511.000000) scale(0.100000,-0.100000)"><path d="M4669.2,4644v-368l-233.6,233.6L4204,4741.2l-233.6-233.6L3738.8,4276l465.2-465.2l465.2-465.2v-977.9c0-911.8-2.1-977.9-35.2-988.3c-20.7-8.3-97.2-39.3-171.6-74.4l-132.3-60l-688.5,688.5L2953.2,2622l-4.1,661.6l-6.2,661.6l-324.6,6.2l-326.7,6.2v-337v-337l-254.3,254.3c-138.5,138.5-262.6,252.2-272.9,252.2c-26.9,0-444.5-417.6-444.5-444.5c0-10.3,113.7-134.4,252.2-272.9l254.3-254.3h-337h-334.9v-330.8v-330.8h665.7H2488l686.4-686.4L3860.8,784l-33.1-62c-18.6-33.1-47.5-109.6-68.2-165.4l-35.2-105.4l-980-6.2l-980-4.1L1299.2,906L834,1371.2l-231.6-231.6L368.8,906l231.6-231.6L834,440.8H466H100V110v-330.8h366h368L600.3-454.4L368.8-686l233.6-233.6L834-1151.2L1299.2-686l465.2,465.2h977.9c911.8,0,977.9-2.1,988.3-35.2c6.2-20.7,37.2-99.2,68.2-173.7l57.9-138.5l-684.3-684.4L2488-1936.8h-667.8h-665.7v-330.8v-330.8h334.9h337l-258.4-258.4l-256.4-256.4l41.4-47.5c55.8-64.1,272.9-281.2,355.6-355.6l68.2-59.9l258.4,256.4l256.4,256.4v-337v-334.9h330.8h330.8v667.8v665.7l690.5,690.6c560.3,560.3,696.8,686.4,721.6,667.8c14.5-12.4,88.9-47.5,161.3-74.4l132.3-49.6l6.2-977.9l4.1-980L4204-3590.8L3738.8-4056l231.6-231.6l233.6-233.6l231.6,231.6l233.6,233.6v-368v-366H5000h330.8v366v368l233.6-233.6l231.6-231.6l233.6,233.6l231.6,231.6L5796-3590.8l-465.2,465.2v977.9c0,911.8,2.1,977.9,37.2,988.3c18.6,8.3,95.1,39.3,169.6,74.4l132.3,59.9l688.5-688.5l688.5-688.5v-665.7v-667.8h330.8h330.8v334.9v337l254.3-254.3c138.5-138.5,262.6-252.2,272.9-252.2c26.9,0,444.5,417.6,444.5,444.5c0,10.3-113.7,134.4-252.2,272.9l-254.3,254.3h337h337l-6.2,326.7l-6.2,324.6l-661.6,6.2l-661.6,4.1l-690.6,690.6L6133-557.8l41.3,80.6c22.8,43.4,51.7,119.9,66.2,169.6l26.9,86.8h984.1h984.1L8700.8-686l465.2-465.2l231.6,231.6L9631.2-686l-231.6,231.6L9166-220.8h368h366V110v330.8h-366h-368l233.6,233.6L9631.2,906l-233.6,233.6L9166,1371.2L8700.8,906l-465.2-465.2h-984.1h-984.1l-26.9,88.9c-14.5,47.6-43.4,124-66.2,167.5l-41.3,80.6l688.5,688.5l690.6,690.5l661.6,4.1l661.6,6.2l6.2,326.7l6.2,324.6h-337h-337l264.6,264.6l262.6,262.6l-231.6,233.6l-233.6,231.6l-262.6-262.6l-264.6-264.6v337v334.9h-330.8h-330.8v-667.8V2622l-688.5-688.5l-688.5-688.5l-138.5,64.1c-74.4,33.1-150.9,62-169.5,62c-26.9,0-31,117.9-31,988.3v986.2l465.2,465.2l465.2,465.2l-231.6,231.6L5796,4741.2l-231.6-231.6L5330.8,4276v368v366H5000h-330.8V4644z M5283.3,703.4c411.4-210.9,498.3-748.4,173.7-1064.8c-138.5-134.4-252.2-177.8-456.9-179.9c-150.9,0-192.3,8.3-293.6,57.9c-217.1,107.5-347.3,301.9-363.9,543.8c-20.7,312.2,146.8,570.6,436.2,674C4931.8,788.1,5140.6,775.7,5283.3,703.4z"/></g></g>
</svg>